<mxfile host="app.diagrams.net" agent="Mozilla/5.0 (Macintosh; Intel Mac OS X 10_15_7) AppleWebKit/605.1.15 (KHTML, like Gecko) Version/17.4.1 Safari/605.1.15" version="26.0.6">
  <diagram id="prtHgNgQTEPvFCAcTncT" name="Page-1">
    <mxGraphModel dx="787" dy="598" grid="1" gridSize="10" guides="1" tooltips="1" connect="1" arrows="1" fold="1" page="1" pageScale="1" pageWidth="827" pageHeight="1169" math="0" shadow="0">
      <root>
        <mxCell id="0" />
        <mxCell id="1" parent="0" />
        <mxCell id="XKD69v6j79KyD-P0qI7F-1" value="" style="verticalLabelPosition=bottom;verticalAlign=top;html=1;shape=mxgraph.basic.rect;fillColor2=none;strokeWidth=2;size=20;indent=5;" vertex="1" parent="1">
          <mxGeometry x="104" y="120" width="620" height="290" as="geometry" />
        </mxCell>
        <mxCell id="XKD69v6j79KyD-P0qI7F-3" value="" style="verticalLabelPosition=bottom;verticalAlign=top;html=1;shape=mxgraph.basic.rect;fillColor2=none;strokeWidth=1;size=20;indent=5;" vertex="1" parent="1">
          <mxGeometry x="504" y="140" width="200" height="140" as="geometry" />
        </mxCell>
        <mxCell id="XKD69v6j79KyD-P0qI7F-4" value="" style="verticalLabelPosition=bottom;verticalAlign=top;html=1;shape=mxgraph.basic.rect;fillColor2=none;strokeWidth=1;size=20;indent=5;" vertex="1" parent="1">
          <mxGeometry x="124" y="140" width="230" height="170" as="geometry" />
        </mxCell>
        <mxCell id="XKD69v6j79KyD-P0qI7F-5" value="" style="verticalLabelPosition=bottom;verticalAlign=top;html=1;shape=mxgraph.basic.rect;fillColor2=none;strokeWidth=1;size=20;indent=5;" vertex="1" parent="1">
          <mxGeometry x="124" y="330" width="230" height="60" as="geometry" />
        </mxCell>
        <mxCell id="XKD69v6j79KyD-P0qI7F-6" value="" style="verticalLabelPosition=bottom;verticalAlign=top;html=1;shape=mxgraph.basic.rect;fillColor2=none;strokeWidth=1;size=20;indent=5;" vertex="1" parent="1">
          <mxGeometry x="134" y="235" width="210" height="60" as="geometry" />
        </mxCell>
        <mxCell id="XKD69v6j79KyD-P0qI7F-7" value="" style="verticalLabelPosition=bottom;verticalAlign=top;html=1;shape=mxgraph.basic.rect;fillColor2=none;strokeWidth=1;size=20;indent=5;" vertex="1" parent="1">
          <mxGeometry x="134" y="190" width="210" height="40" as="geometry" />
        </mxCell>
        <mxCell id="XKD69v6j79KyD-P0qI7F-8" value="" style="verticalLabelPosition=bottom;verticalAlign=top;html=1;shape=mxgraph.basic.rect;fillColor2=none;strokeWidth=1;size=20;indent=5;" vertex="1" parent="1">
          <mxGeometry x="374" y="310" width="330" height="80" as="geometry" />
        </mxCell>
        <mxCell id="XKD69v6j79KyD-P0qI7F-9" value="" style="verticalLabelPosition=bottom;verticalAlign=top;html=1;shape=mxgraph.basic.rect;fillColor2=none;strokeWidth=1;size=20;indent=5;" vertex="1" parent="1">
          <mxGeometry x="380" y="210" width="106" height="30" as="geometry" />
        </mxCell>
        <mxCell id="XKD69v6j79KyD-P0qI7F-10" value="" style="endArrow=classic;html=1;rounded=0;strokeWidth=2;entryX=-0.008;entryY=0.076;entryDx=0;entryDy=0;entryPerimeter=0;" edge="1" parent="1">
          <mxGeometry width="50" height="50" relative="1" as="geometry">
            <mxPoint x="365.8" y="151" as="sourcePoint" />
            <mxPoint x="496" y="151" as="targetPoint" />
          </mxGeometry>
        </mxCell>
        <mxCell id="XKD69v6j79KyD-P0qI7F-16" value="" style="endArrow=classic;html=1;rounded=0;strokeWidth=2;" edge="1" parent="1">
          <mxGeometry width="50" height="50" relative="1" as="geometry">
            <mxPoint x="365" y="160" as="sourcePoint" />
            <mxPoint x="420" y="201" as="targetPoint" />
          </mxGeometry>
        </mxCell>
        <mxCell id="XKD69v6j79KyD-P0qI7F-17" value="" style="endArrow=classic;html=1;rounded=0;strokeWidth=2;" edge="1" parent="1">
          <mxGeometry width="50" height="50" relative="1" as="geometry">
            <mxPoint x="450" y="300" as="sourcePoint" />
            <mxPoint x="365" y="255" as="targetPoint" />
          </mxGeometry>
        </mxCell>
        <mxCell id="XKD69v6j79KyD-P0qI7F-18" value="" style="endArrow=classic;html=1;rounded=0;strokeWidth=2;entryX=-0.012;entryY=0.102;entryDx=0;entryDy=0;entryPerimeter=0;" edge="1" parent="1">
          <mxGeometry width="50" height="50" relative="1" as="geometry">
            <mxPoint x="434" y="200" as="sourcePoint" />
            <mxPoint x="494" y="164.27999999999997" as="targetPoint" />
          </mxGeometry>
        </mxCell>
        <mxCell id="XKD69v6j79KyD-P0qI7F-19" value="" style="endArrow=classic;html=1;rounded=0;strokeWidth=2;entryX=0.504;entryY=1.004;entryDx=0;entryDy=0;entryPerimeter=0;" edge="1" parent="1">
          <mxGeometry width="50" height="50" relative="1" as="geometry">
            <mxPoint x="604.09" y="307" as="sourcePoint" />
            <mxPoint x="603.89" y="283" as="targetPoint" />
            <Array as="points">
              <mxPoint x="604.09" y="296" />
            </Array>
          </mxGeometry>
        </mxCell>
        <mxCell id="XKD69v6j79KyD-P0qI7F-21" value="&lt;font face=&quot;Helvetica&quot;&gt;School Belonging&lt;/font&gt;" style="text;html=1;align=center;verticalAlign=middle;whiteSpace=wrap;rounded=0;" vertex="1" parent="1">
          <mxGeometry x="380" y="210" width="107" height="30" as="geometry" />
        </mxCell>
        <mxCell id="XKD69v6j79KyD-P0qI7F-22" value="&lt;font face=&quot;Helvetica&quot;&gt;Social Class Discrimination&lt;/font&gt;" style="text;html=1;align=center;verticalAlign=middle;whiteSpace=wrap;rounded=0;fontStyle=1" vertex="1" parent="1">
          <mxGeometry x="185.5" y="150" width="107" height="30" as="geometry" />
        </mxCell>
        <mxCell id="XKD69v6j79KyD-P0qI7F-23" value="&lt;font face=&quot;Helvetica&quot;&gt;Academic Outcomes&lt;/font&gt;" style="text;html=1;align=center;verticalAlign=middle;whiteSpace=wrap;rounded=0;fontStyle=1;fontSize=13;" vertex="1" parent="1">
          <mxGeometry x="516" y="150" width="176" height="30" as="geometry" />
        </mxCell>
        <mxCell id="XKD69v6j79KyD-P0qI7F-24" value="&lt;font face=&quot;Helvetica&quot;&gt;&lt;b&gt;Social Class&lt;/b&gt;&lt;/font&gt;" style="text;html=1;align=center;verticalAlign=middle;whiteSpace=wrap;rounded=0;" vertex="1" parent="1">
          <mxGeometry x="485.5" y="310" width="107" height="30" as="geometry" />
        </mxCell>
        <mxCell id="XKD69v6j79KyD-P0qI7F-25" value="&lt;font face=&quot;Helvetica&quot;&gt;&lt;i&gt;Moderators&lt;/i&gt;: Gender, race/ethnicity, and sexual orientation.&amp;nbsp;&lt;/font&gt;&lt;i&gt;Covariates&lt;/i&gt;: Stress and depression symptoms." style="text;html=1;align=left;verticalAlign=middle;whiteSpace=wrap;rounded=0;" vertex="1" parent="1">
          <mxGeometry x="138" y="332.5" width="206" height="55" as="geometry" />
        </mxCell>
        <mxCell id="XKD69v6j79KyD-P0qI7F-27" value="&lt;font face=&quot;Helvetica&quot;&gt;&lt;i&gt;Teachers&lt;/i&gt;: &quot;A teacher did not believe that I could go to college&quot;&lt;/font&gt;" style="text;html=1;align=left;verticalAlign=middle;whiteSpace=wrap;rounded=0;" vertex="1" parent="1">
          <mxGeometry x="142.5" y="195" width="180" height="30" as="geometry" />
        </mxCell>
        <mxCell id="XKD69v6j79KyD-P0qI7F-28" value="&lt;font face=&quot;Helvetica&quot;&gt;&lt;i&gt;Classmates&lt;/i&gt;: &quot;A classmate has made fun of me because I frequently wear the same clothes&quot;&lt;/font&gt;" style="text;html=1;align=left;verticalAlign=middle;whiteSpace=wrap;rounded=0;" vertex="1" parent="1">
          <mxGeometry x="142.5" y="240" width="193" height="50" as="geometry" />
        </mxCell>
        <mxCell id="XKD69v6j79KyD-P0qI7F-29" value="&lt;font face=&quot;Helvetica&quot;&gt;&lt;i&gt;Familial-Objective &lt;/i&gt;(parental income, education, and occupation; home). &lt;i&gt;Familial-Subjective&lt;/i&gt; (perceived position). &lt;i&gt;Neighborhood &lt;/i&gt;(Census and perceived quality).&amp;nbsp;&lt;/font&gt;" style="text;html=1;align=center;verticalAlign=middle;whiteSpace=wrap;rounded=0;" vertex="1" parent="1">
          <mxGeometry x="384" y="335" width="310" height="45" as="geometry" />
        </mxCell>
        <mxCell id="XKD69v6j79KyD-P0qI7F-30" value="&lt;font face=&quot;Helvetica&quot;&gt;&lt;i&gt;Achievement&lt;/i&gt;: English, Social Studies, STEM;&amp;nbsp;&lt;/font&gt;&lt;div&gt;&lt;font face=&quot;Helvetica&quot;&gt;&lt;i&gt;Attainment&lt;/i&gt;: High school dropout and degree completion.&lt;/font&gt;&lt;div&gt;&lt;font face=&quot;Helvetica&quot;&gt;&lt;i&gt;Academic Motivation&lt;/i&gt;: Values, expectations, career goals.&lt;/font&gt;&lt;/div&gt;&lt;/div&gt;" style="text;html=1;align=center;verticalAlign=middle;whiteSpace=wrap;rounded=0;" vertex="1" parent="1">
          <mxGeometry x="513.5" y="175" width="181" height="100" as="geometry" />
        </mxCell>
      </root>
    </mxGraphModel>
  </diagram>
</mxfile>
